HIERARCHY
ROOT hip
{
	OFFSET 0.000000 0.000000 0.000000 
	CHANNELS 6 Xposition Yposition Zposition Xrotation Zrotation Yrotation
	JOINT abdomen
	{
		OFFSET 0.000000 3.402643 0.000000 
		CHANNELS 3 Xrotation Zrotation Yrotation
		JOINT chest
		{
			OFFSET 0.000000 8.438565 -0.680529 
			CHANNELS 3 Xrotation Zrotation Yrotation
			JOINT neck
			{
				OFFSET 0.000000 10.207942 -0.272212 
				CHANNELS 3 Xrotation Zrotation Yrotation
				JOINT head
				{
					OFFSET 0.000000 3.130431 0.000000 
					CHANNELS 3 Xrotation Zrotation Yrotation
					End Site
					{
						OFFSET 0.000000 3.130435 0.000000 
					}
				}
			}
			JOINT lCollar
			{
				OFFSET 3.470700 6.669187 -0.816635 
				CHANNELS 3 Yrotation Zrotation Xrotation
				JOINT lShldr
				{
					OFFSET 3.198488 0.000000 0.000000 
					CHANNELS 3 Zrotation Yrotation Xrotation
					JOINT lForeArm
					{
						OFFSET 10.139888 0.000000 0.000000 
						CHANNELS 3 Yrotation Zrotation Xrotation
						JOINT lHand
						{
							OFFSET 8.370511 0.000000 0.000000 
							CHANNELS 3 Zrotation Yrotation Xrotation
							End Site
							{
								OFFSET 4.083176 0.000000 0.000000 
							}
						}
					}
				}
			}
			JOINT rCollar
			{
				OFFSET -3.470700 6.669187 -0.816635 
				CHANNELS 3 Yrotation Zrotation Xrotation
				JOINT rShldr
				{
					OFFSET -3.198488 0.000000 0.000000 
					CHANNELS 3 Zrotation Yrotation Xrotation
					JOINT rForeArm
					{
						OFFSET -10.139888 0.000000 0.000000 
						CHANNELS 3 Yrotation Zrotation Xrotation
						JOINT rHand
						{
							OFFSET -8.370511 0.000000 0.000000 
							CHANNELS 3 Zrotation Yrotation Xrotation
							End Site
							{
								OFFSET -4.083176 0.000000 0.000000 
							}
						}
					}
				}
			}
		}
	}
	JOINT lThigh
	{
		OFFSET 5.308129 -1.633274 1.361059 
		CHANNELS 3 Xrotation Zrotation Yrotation
		JOINT lShin
		{
			OFFSET -2.041588 -20.007561 0.000000 
			CHANNELS 3 Xrotation Zrotation Yrotation
			JOINT lFoot
			{
				OFFSET 0.000000 -19.190928 -1.224953 
				CHANNELS 3 Xrotation Yrotation Zrotation
				End Site
				{
					OFFSET 0.000000 -2.449906 4.627600 
				}
			}
		}
	}
	JOINT rThigh
	{
		OFFSET -5.308129 -1.633274 1.361059 
		CHANNELS 3 Xrotation Zrotation Yrotation
		JOINT rShin
		{
			OFFSET 2.041588 -20.007561 0.000000 
			CHANNELS 3 Xrotation Zrotation Yrotation
			JOINT rFoot
			{
				OFFSET 0.000000 -19.190928 -1.224953 
				CHANNELS 3 Xrotation Yrotation Zrotation
				End Site
				{
					OFFSET 0.000000 -2.449906 4.627600 
				}
			}
		}
	}
}
MOTION
Frames: 18
Frame Time: 0.033333
0.028681 41.497963 0.340369 -2.539063 17.675781 90.784218 0.000000 0.000000 0.000000 -6.113281 -16.201172 3.164063 24.814455 -15.517577 -1.272143 -6.708985 7.001954 -11.259766 21.445313 -8.681641 24.999998 -60.664059 -25.244141 -24.203381 -21.591795 9.023438 2.908624 -0.673828 10.537108 52.343750 -16.494141 -29.189451 15.600467 87.988281 2.148437 83.818359 9.775391 -17.431643 8.030270 36.093754 2.011719 -9.032861 35.471310 17.792265 21.773277 55.294857 9.316976 -0.297399 14.280368 -18.134708 -14.986816 9.650993 6.958217 2.976315 36.701359 1.920724 2.764465 -21.848032 -17.438080 16.019827 
-0.050932 41.474743 0.605149 -3.320313 15.791015 91.799530 0.000000 0.000000 0.000000 -7.167968 -15.107421 3.376361 24.121094 -16.181641 -1.308595 -6.357421 7.314454 -12.039773 22.128906 -8.388671 24.990234 -62.421879 -22.236330 -23.554686 -21.220701 9.677734 5.203436 -1.054687 11.875000 52.043026 -15.771484 -30.000000 15.581057 89.648438 5.947266 83.575233 13.769531 -18.886719 11.184801 33.105469 1.210938 -9.101355 26.910315 19.189184 23.712543 62.638580 14.285615 0.518184 19.411777 -15.162875 -14.571033 9.937446 8.688251 3.476800 36.001118 1.800229 2.734376 -23.554920 -18.826422 14.858545 
-0.175140 41.513737 0.764589 -3.798828 14.609375 92.519531 0.000000 0.000000 0.000000 -7.636718 -13.984375 3.610922 23.564451 -17.578123 -1.416016 -5.751953 7.822267 -12.431640 23.496096 -8.408203 25.000000 -63.378902 -18.710938 -23.342972 -21.669920 9.228517 6.199606 -1.210938 13.076173 51.826172 -14.101563 -30.000000 16.049807 91.582031 10.791016 83.185417 16.933594 -19.794922 13.466798 29.941408 0.585938 -9.140526 18.791145 19.284567 24.461451 69.007706 18.307800 1.256377 19.362288 -10.237488 -16.762094 11.159364 9.900150 3.814233 34.831085 1.566320 2.519789 -25.109768 -19.348352 13.979384 
-0.311610 41.607826 0.806393 -3.769531 14.238280 93.225060 0.000000 0.000000 0.000000 -7.460937 -13.164062 3.777073 23.330078 -19.365234 -1.555972 -5.117188 8.486328 -12.460938 25.205078 -8.652344 25.000000 -63.613281 -14.843750 -23.557190 -22.890623 7.773438 6.287742 -0.957031 14.150390 51.767578 -12.089844 -30.000000 16.767580 93.417969 16.015627 82.695313 19.062500 -20.380859 14.599609 27.734375 0.605469 -9.052733 11.988659 18.133327 24.129963 73.321793 20.922438 1.738847 15.695025 -5.267272 -19.109442 13.425398 10.281633 3.907063 33.099499 1.449476 2.313205 -26.373253 -19.313459 13.032799 
-0.449714 41.717976 0.808816 -3.896484 14.169923 93.713333 0.000000 0.000000 0.000000 -7.158204 -12.070312 3.994141 23.281250 -21.298826 -1.708984 -4.599609 9.238281 -12.050781 27.285158 -8.710938 25.000000 -63.593754 -10.761719 -23.994139 -24.658201 5.722657 6.463870 -0.410156 15.087892 51.796875 -9.873046 -30.000000 17.729494 95.175781 21.357422 82.191055 20.332029 -20.693359 14.550782 26.240234 1.025391 -8.925604 6.023254 16.716446 23.493114 75.423409 22.523470 2.062943 11.576830 -1.186679 -20.247025 16.266449 10.799028 4.025664 30.796169 1.186273 2.062870 -27.382139 -19.138317 12.389666 
-0.602276 41.817009 0.781500 -4.052734 14.130859 94.150391 0.000000 0.000000 0.000000 -6.826172 -11.005860 4.207120 23.193359 -23.125000 -1.845704 -4.208984 9.970702 -11.386720 29.394531 -8.564453 25.000000 -63.300781 -6.855469 -24.659367 -26.396484 3.544922 6.582031 0.087891 15.947264 51.806644 -7.519532 -30.000000 18.906248 96.806641 26.523439 81.713341 20.908205 -20.927734 13.567942 25.000000 1.484375 -8.837636 0.709256 15.137822 22.670990 75.245209 23.296991 2.242167 8.222447 1.480703 -20.308222 19.137842 11.258360 4.136807 28.306414 0.981809 1.790654 -28.181730 -18.820614 12.072871 
-0.787700 41.883247 0.706886 -4.003906 13.984375 94.541016 0.000000 0.000000 0.000000 -6.562500 -10.136718 4.383047 22.871094 -24.912111 -2.001953 -3.955078 10.800781 -10.537109 31.337891 -8.427734 25.000000 -62.695309 -3.515625 -25.449814 -27.175697 1.855340 6.709195 0.468750 16.230448 51.711674 -5.136718 -30.000000 20.239260 98.447266 31.484375 81.362526 21.152344 -21.367186 12.460938 23.847656 1.914063 -8.788734 -4.004073 13.315606 21.708719 72.773323 23.101477 2.246385 5.545557 2.309327 -19.788292 21.733227 11.394034 4.232312 26.136141 0.966948 1.496652 -29.049078 -18.412937 11.978003 
-0.998607 41.888992 0.589047 -3.818359 13.554688 94.631195 0.000000 0.000000 0.000000 -6.630859 -9.443359 4.521484 22.353516 -26.699219 -2.158203 -3.691406 11.748047 -9.392542 33.281250 -8.125000 25.000000 -62.031254 -0.878906 -26.230471 -26.757813 0.468782 5.009360 2.109375 16.386623 51.916653 -2.626953 -30.000000 21.752932 100.664063 36.318359 81.382736 21.357424 -21.894533 12.396220 22.441406 2.734375 -8.701172 -7.995639 11.582635 20.840780 68.064941 21.663136 1.988447 3.656622 1.344235 -19.274200 24.020239 11.277895 4.211373 24.230490 0.810852 1.286373 -29.987665 -17.914225 12.311506 
-1.195622 41.863255 0.463723 -3.798828 13.212892 94.365234 0.000000 0.000000 0.000000 -6.708984 -8.681641 4.677734 21.738281 -28.388668 -2.294922 -3.173828 12.656251 -8.173829 34.873047 -7.939454 25.000000 -61.171871 1.181641 -27.021280 -25.527344 -0.068359 3.867199 2.773438 16.582033 51.809429 -0.253906 -30.000000 23.310547 102.353516 40.791019 81.250000 22.529297 -22.412107 13.363097 21.503906 3.261719 -8.544367 -10.894635 10.421827 20.135357 62.188477 19.240572 1.660298 2.278355 -0.530926 -19.021204 26.584349 11.344853 4.236471 22.126078 0.387364 1.006275 -30.869135 -17.360422 12.338326 
-1.364531 41.810707 0.323229 -3.730469 13.017577 93.925781 0.000000 0.000000 0.000000 -6.689453 -8.085938 4.803314 21.093750 -29.638670 -2.416939 -2.832031 13.095703 -6.882553 36.015625 -7.910156 25.000000 -60.312496 2.617188 -27.714397 -23.984375 -0.195313 2.363314 3.867188 17.148438 51.897415 1.699219 -30.000000 24.677734 103.583984 44.541016 81.110367 24.433596 -23.125002 15.199148 21.523438 3.652344 -8.281250 -12.587626 9.657846 19.758741 56.057266 16.732950 1.279623 1.313301 -3.094743 -18.911156 29.274368 11.414824 4.262840 20.092453 -0.106657 0.753762 -31.672672 -16.816196 11.845125 
-1.496714 41.728008 0.154051 -3.535156 13.027343 93.185791 0.000000 0.000000 0.000000 -6.464844 -7.568360 4.912110 20.253906 -30.898438 -2.524547 -2.773438 13.359375 -5.615233 36.865231 -8.076172 25.000000 -59.482422 3.574219 -28.320314 -22.294920 -0.488281 0.185630 5.625000 17.695311 52.239296 3.203125 -30.000000 25.000000 105.439453 47.441406 81.481804 26.914063 -24.208984 17.933691 22.080078 4.423828 -7.850810 -13.110428 8.958057 19.432585 50.271996 14.499879 1.091049 0.646398 -6.644264 -18.780159 31.986069 11.101609 4.169431 18.411190 -0.500090 0.535982 -32.427452 -16.107504 11.870676 
-1.554650 41.631466 -0.071504 -3.046875 13.544923 91.972656 0.000000 0.000000 0.000000 -5.878906 -7.275390 4.970704 19.345703 -31.914063 -2.612584 -2.705078 13.583984 -4.081872 37.705078 -8.261718 25.000000 -59.072266 4.189453 -28.612564 -20.869139 -0.507813 -2.480382 7.578125 18.027344 52.705078 4.863281 -30.000000 25.000000 107.177734 49.814453 81.921524 29.853518 -25.195313 20.580328 22.343748 5.605469 -7.441406 -12.223896 8.267726 19.307972 45.525555 13.014281 0.920216 -0.225165 -10.028225 -18.555820 35.115425 10.146007 3.926223 17.146664 -0.731672 0.383949 -33.358158 -15.092618 12.229251 
-1.496984 41.545593 -0.376574 -2.187500 14.736329 90.383347 0.000000 0.000000 0.000000 -4.873047 -7.236329 4.959708 18.525393 -32.880863 -2.681083 -2.490235 13.916017 -2.236328 38.769535 -8.388672 25.000000 -58.994141 4.472656 -28.719942 -19.765625 -0.595703 -5.117086 9.384766 18.251955 53.183594 6.708985 -30.000000 25.000000 108.994141 51.533203 82.568352 33.037109 -25.898438 23.427734 22.119143 6.884766 -7.098438 -9.615893 7.358166 19.156326 42.233910 11.659931 0.859341 -1.482931 -11.566674 -18.797995 38.783897 8.377855 3.437659 16.398476 -0.692484 0.306168 -34.334118 -14.163514 12.905609 
-1.352734 41.451576 -0.761512 -1.162109 15.820313 88.671875 0.000000 0.000000 0.000000 -4.394531 -7.363281 4.941407 18.144533 -33.574219 -2.759307 -2.285156 14.082031 -0.615234 39.707031 -8.408204 25.000000 -59.189457 4.541016 -28.662109 -18.994139 -0.625000 -7.343644 10.595703 18.486326 53.587086 7.880860 -30.000000 25.000000 110.029297 52.529297 82.937439 37.041016 -25.820311 27.269878 21.279297 7.978516 -6.844348 -6.551816 6.199260 18.967232 40.330753 10.361955 0.634938 -2.876402 -10.819195 -18.704996 41.844761 5.995685 2.788934 16.700138 -0.292408 0.445348 -34.990517 -13.690091 13.936960 
-1.144442 41.323463 -1.172477 -0.361328 15.820313 86.894531 0.000000 0.000000 0.000000 -5.449218 -7.265625 4.959702 18.349611 -33.896484 -2.788648 -2.177734 13.945313 0.578525 40.419922 -8.281250 25.000000 -59.580074 4.316407 -28.426998 -18.427734 -0.361328 -8.886658 11.123048 18.759766 53.821503 7.988280 -30.000000 25.000000 110.410156 52.255859 83.181549 41.679688 -25.292967 32.836205 19.609375 8.652345 -6.736811 -4.665699 5.307072 18.751589 40.113533 9.186433 0.378473 -3.859975 -9.276962 -19.239998 44.114643 3.339363 2.050123 16.518888 0.690608 0.680254 -34.555889 -12.940549 15.124357 
-0.859180 41.224003 -1.574042 0.039063 15.380858 85.556641 0.000000 0.000000 0.000000 -7.158203 -6.894531 5.057421 19.140625 -33.779293 -2.778866 -2.421875 13.417969 1.132813 40.664063 -8.095703 25.000000 -59.980469 3.369141 -28.036535 -17.958984 0.273438 -9.853516 11.572266 18.994141 54.134033 6.972656 -30.000000 25.000000 109.824219 50.478519 83.173828 46.533199 -24.511721 39.228519 17.412111 8.486329 -6.883323 -3.426029 4.886917 18.628614 41.270187 8.104458 0.104401 -4.650850 -8.084933 -21.100229 44.224400 1.230338 1.435166 19.370651 1.529311 1.023435 -34.312302 -12.382765 16.040880 
-0.503822 41.236519 -1.985517 0.322266 15.664061 84.863281 0.000000 0.000000 0.000000 -8.154297 -6.630859 5.106294 20.244143 -33.398438 -2.759282 -2.958984 12.900499 0.939667 40.507813 -8.251953 25.000000 -60.097660 1.152344 -27.490234 -17.705078 1.074219 -11.064636 12.656250 19.199217 54.739540 5.371094 -30.000000 25.000000 108.720703 47.460938 83.151726 51.230469 -23.408203 45.580051 14.912109 7.089844 -7.303480 -1.074299 4.449757 18.549694 42.555653 6.965785 -0.212798 -5.846529 -7.270980 -23.748312 43.693344 -1.132766 0.693974 24.439402 3.183090 1.841618 -33.513695 -11.520198 16.874468 
-0.156270 41.345379 -2.419237 0.712891 16.250000 84.328903 0.000000 0.000000 0.000000 -8.769531 -6.582031 5.135600 21.171873 -33.095707 -2.724609 -3.613281 12.382813 0.656391 40.302734 -8.730470 24.999996 -60.000000 -2.021484 -26.914063 -18.076170 1.562500 -12.871301 14.169923 19.082033 55.540302 3.730469 -30.000000 25.000000 107.470703 43.945313 83.190369 55.546875 -21.982422 52.152092 12.929688 4.863282 -7.753076 2.045851 3.742520 18.340784 43.289814 5.665596 -0.568250 -7.134096 -6.559322 -26.319704 41.802509 -4.550515 -0.350268 32.078514 5.770655 3.100680 -31.888988 -9.127885 17.949665 
